<?xml version="1.0" encoding="UTF-8"?>
<svg width="1185" height="510" viewBox="0 0 1185 510" fill="none" xmlns="http://www.w3.org/2000/svg">
  <defs>
    <linearGradient id="bg" x1="114" y1="68" x2="1043" y2="463" gradientUnits="userSpaceOnUse">
      <stop stop-color="#F7F1E7"/>
      <stop offset="1" stop-color="#E7EFE8"/>
    </linearGradient>
    <linearGradient id="chip" x1="0" y1="0" x2="1" y2="1">
      <stop stop-color="#0C4A3B"/>
      <stop offset="1" stop-color="#116149"/>
    </linearGradient>
    <filter id="shadow" x="0" y="0" width="1185" height="510" filterUnits="userSpaceOnUse" color-interpolation-filters="sRGB">
      <feDropShadow dx="0" dy="18" stdDeviation="24" flood-color="#08231D" flood-opacity="0.10"/>
    </filter>
  </defs>

  <rect width="1185" height="510" rx="36" fill="url(#bg)"/>
  <circle cx="1036" cy="94" r="124" fill="#DDEAE2"/>
  <circle cx="98" cy="444" r="140" fill="#EDE1D2"/>
  <path d="M982 44C1048 74 1085 132 1092 220" stroke="#9BB9A9" stroke-width="10" stroke-linecap="round" stroke-dasharray="2 26"/>
  <path d="M118 368C220 312 324 284 448 283" stroke="#C2B099" stroke-width="8" stroke-linecap="round" stroke-dasharray="2 24"/>

  <g filter="url(#shadow)">
    <rect x="74" y="60" width="1037" height="390" rx="30" fill="#FFFDF8"/>
  </g>

  <rect x="122" y="96" width="306" height="44" rx="22" fill="url(#chip)"/>
  <text x="151" y="126" fill="#F4F8F2" font-family="PingFang SC, Noto Sans SC, Source Han Sans SC, Microsoft YaHei, sans-serif" font-size="24" font-weight="700" letter-spacing="1">
    AI AGENT 设计模式
  </text>

  <text x="123" y="214" fill="#1A1F1D" font-family="PingFang SC, Noto Sans SC, Source Han Sans SC, Microsoft YaHei, sans-serif" font-size="44" font-weight="600">
    做 AI Agent
  </text>
  <text x="123" y="286" fill="#1A1F1D" font-family="PingFang SC, Noto Sans SC, Source Han Sans SC, Microsoft YaHei, sans-serif" font-size="74" font-weight="800">
    别一上来就
  </text>
  <text x="123" y="376" fill="#0C4A3B" font-family="PingFang SC, Noto Sans SC, Source Han Sans SC, Microsoft YaHei, sans-serif" font-size="92" font-weight="800">
    多智能体
  </text>

  <text x="127" y="420" fill="#56605C" font-family="PingFang SC, Noto Sans SC, Source Han Sans SC, Microsoft YaHei, sans-serif" font-size="28" font-weight="500">
    单智能体 / 串行 / 并行
  </text>

  <g transform="translate(704 116)">
    <rect x="0" y="0" width="310" height="244" rx="28" fill="#F3F7F2" stroke="#D7E3DB" stroke-width="2"/>
    <text x="32" y="46" fill="#0F1720" font-family="PingFang SC, Noto Sans SC, Source Han Sans SC, Microsoft YaHei, sans-serif" font-size="28" font-weight="700">
      先选工作流，再选复杂度
    </text>

    <g transform="translate(34 84)">
      <rect x="0" y="0" width="88" height="48" rx="18" fill="#E2EFE7"/>
      <text x="18" y="31" fill="#0C4A3B" font-family="PingFang SC, Noto Sans SC, Source Han Sans SC, Microsoft YaHei, sans-serif" font-size="24" font-weight="700">
        单体
      </text>
      <path d="M102 24H152" stroke="#93A79D" stroke-width="6" stroke-linecap="round"/>
      <circle cx="168" cy="24" r="14" fill="#0C4A3B"/>
    </g>

    <g transform="translate(34 148)">
      <rect x="0" y="0" width="74" height="42" rx="16" fill="#FFF7E8" stroke="#E6D6B2" stroke-width="2"/>
      <rect x="108" y="0" width="74" height="42" rx="16" fill="#FFF7E8" stroke="#E6D6B2" stroke-width="2"/>
      <rect x="216" y="0" width="74" height="42" rx="16" fill="#FFF7E8" stroke="#E6D6B2" stroke-width="2"/>
      <path d="M74 21H100" stroke="#B69A67" stroke-width="5" stroke-linecap="round"/>
      <path d="M182 21H208" stroke="#B69A67" stroke-width="5" stroke-linecap="round"/>
    </g>

    <g transform="translate(222 62)">
      <circle cx="24" cy="24" r="24" fill="#E9F1FF"/>
      <circle cx="24" cy="24" r="11" fill="#3366CC"/>
      <path d="M24 48V74" stroke="#9EB7EA" stroke-width="5" stroke-linecap="round"/>
      <circle cx="24" cy="92" r="18" fill="#E9F1FF" stroke="#9EB7EA" stroke-width="4"/>
      <path d="M7 109L-8 124" stroke="#9EB7EA" stroke-width="5" stroke-linecap="round"/>
      <path d="M41 109L56 124" stroke="#9EB7EA" stroke-width="5" stroke-linecap="round"/>
      <circle cx="-24" cy="140" r="16" fill="#0C4A3B"/>
      <circle cx="24" cy="140" r="16" fill="#0C4A3B"/>
      <circle cx="72" cy="140" r="16" fill="#0C4A3B"/>
    </g>
  </g>
</svg>
