<?xml version="1.0" encoding="UTF-8"?>
<svg width="2350" height="1000" viewBox="0 0 2350 1000" fill="none" xmlns="http://www.w3.org/2000/svg">
  <defs>
    <linearGradient id="bg" x1="120" y1="80" x2="2160" y2="920" gradientUnits="userSpaceOnUse">
      <stop stop-color="#F5EFE5"/>
      <stop offset="1" stop-color="#E6EEF4"/>
    </linearGradient>
    <linearGradient id="chip" x1="0" y1="0" x2="1" y2="1">
      <stop stop-color="#0C4A3B"/>
      <stop offset="1" stop-color="#165A69"/>
    </linearGradient>
    <filter id="shadow" x="120" y="90" width="2110" height="820" filterUnits="userSpaceOnUse" color-interpolation-filters="sRGB">
      <feDropShadow dx="0" dy="22" stdDeviation="30" flood-color="#17322B" flood-opacity="0.10"/>
    </filter>
  </defs>

  <rect width="2350" height="1000" rx="48" fill="url(#bg)"/>
  <circle cx="2040" cy="160" r="180" fill="#DCE8EE"/>
  <circle cx="220" cy="860" r="220" fill="#EFE2D3"/>
  <path d="M1760 120C1875 150 1960 225 1996 330" stroke="#A9C2CC" stroke-width="18" stroke-linecap="round" stroke-dasharray="3 36"/>
  <path d="M160 720C390 642 618 606 876 614" stroke="#D1B99F" stroke-width="14" stroke-linecap="round" stroke-dasharray="3 34"/>

  <g filter="url(#shadow)">
    <rect x="180" y="120" width="1990" height="720" rx="40" fill="#FFFCF7"/>
  </g>

  <rect x="270" y="190" width="360" height="64" rx="32" fill="url(#chip)"/>
  <text x="314" y="234" fill="#F4F8F2" font-family="PingFang SC, Noto Sans SC, Source Han Sans SC, Microsoft YaHei, sans-serif" font-size="34" font-weight="700" letter-spacing="2">
    AI 日报
  </text>

  <text x="270" y="332" fill="#60706A" font-family="JetBrains Mono, SFMono-Regular, Menlo, monospace" font-size="34" font-weight="600" letter-spacing="4">
    2026 / 04 / 22
  </text>

  <text x="270" y="448" fill="#17201D" font-family="PingFang SC, Noto Sans SC, Source Han Sans SC, Microsoft YaHei, sans-serif" font-size="90" font-weight="700">
    企业级 AI
  </text>
  <text x="270" y="556" fill="#0C4A3B" font-family="PingFang SC, Noto Sans SC, Source Han Sans SC, Microsoft YaHei, sans-serif" font-size="82" font-weight="800">
    开始转向
  </text>
  <text x="270" y="656" fill="#145B6A" font-family="PingFang SC, Noto Sans SC, Source Han Sans SC, Microsoft YaHei, sans-serif" font-size="74" font-weight="800">
    系统竞争
  </text>

  <text x="274" y="742" fill="#586360" font-family="PingFang SC, Noto Sans SC, Source Han Sans SC, Microsoft YaHei, sans-serif" font-size="30" font-weight="500">
    今日看点：Meta Tulsa / OpenAI x Hyatt / Adobe CX Enterprise / Microsoft AI Tour
  </text>

  <g transform="translate(1560 220)">
    <rect x="0" y="0" width="420" height="190" rx="28" fill="#F3F8FA" stroke="#D7E2E7" stroke-width="3"/>
    <rect x="30" y="30" width="140" height="24" rx="12" fill="#D8E7DF"/>
    <rect x="30" y="72" width="220" height="20" rx="10" fill="#E4ECF1"/>
    <rect x="30" y="106" width="300" height="20" rx="10" fill="#E4ECF1"/>
    <rect x="30" y="140" width="190" height="20" rx="10" fill="#E4ECF1"/>
    <circle cx="350" cy="96" r="34" fill="#145B6A"/>
    <path d="M336 96H364" stroke="#F6FAF8" stroke-width="8" stroke-linecap="round"/>
    <path d="M350 82V110" stroke="#F6FAF8" stroke-width="8" stroke-linecap="round"/>
  </g>

  <g transform="translate(1490 470)">
    <rect x="0" y="0" width="520" height="230" rx="30" fill="#FFF5E7" stroke="#E2CFAB" stroke-width="3"/>
    <rect x="42" y="38" width="190" height="34" rx="17" fill="#0C4A3B"/>
    <text x="69" y="62" fill="#F6FAF8" font-family="PingFang SC, Noto Sans SC, Source Han Sans SC, Microsoft YaHei, sans-serif" font-size="24" font-weight="700">
      今日信号
    </text>
    <circle cx="84" cy="124" r="12" fill="#D2A24B"/>
    <text x="112" y="132" fill="#5A4E33" font-family="PingFang SC, Noto Sans SC, Source Han Sans SC, Microsoft YaHei, sans-serif" font-size="28" font-weight="600">
      基础设施开始长期化
    </text>
    <circle cx="84" cy="172" r="12" fill="#145B6A"/>
    <text x="112" y="180" fill="#40555D" font-family="PingFang SC, Noto Sans SC, Source Han Sans SC, Microsoft YaHei, sans-serif" font-size="28" font-weight="600">
      入口、编排与治理同时补齐
    </text>
  </g>
</svg>
