<?xml version="1.0" encoding="UTF-8"?>
<svg width="2350" height="1000" viewBox="0 0 2350 1000" fill="none" xmlns="http://www.w3.org/2000/svg">
  <defs>
    <linearGradient id="bg" x1="160" y1="90" x2="2140" y2="910" gradientUnits="userSpaceOnUse">
      <stop stop-color="#F6F0E7"/>
      <stop offset="1" stop-color="#E7EEF4"/>
    </linearGradient>
    <linearGradient id="chip" x1="0" y1="0" x2="1" y2="1">
      <stop stop-color="#0C4A3B"/>
      <stop offset="1" stop-color="#145B6A"/>
    </linearGradient>
    <filter id="shadow" x="120" y="90" width="2110" height="820" filterUnits="userSpaceOnUse" color-interpolation-filters="sRGB">
      <feDropShadow dx="0" dy="22" stdDeviation="30" flood-color="#17322B" flood-opacity="0.10"/>
    </filter>
  </defs>

  <rect width="2350" height="1000" rx="48" fill="url(#bg)"/>
  <circle cx="2050" cy="170" r="180" fill="#DCE8EE"/>
  <circle cx="230" cy="860" r="210" fill="#EEE2D4"/>
  <path d="M1810 120C1910 160 1984 240 2012 350" stroke="#A8C0C9" stroke-width="18" stroke-linecap="round" stroke-dasharray="3 36"/>
  <path d="M170 720C390 640 620 600 860 610" stroke="#CDB89E" stroke-width="14" stroke-linecap="round" stroke-dasharray="3 34"/>

  <g filter="url(#shadow)">
    <rect x="180" y="120" width="1990" height="720" rx="40" fill="#FFFCF7"/>
  </g>

  <rect x="270" y="190" width="360" height="64" rx="32" fill="url(#chip)"/>
  <text x="314" y="234" fill="#F4F8F2" font-family="PingFang SC, Noto Sans SC, Source Han Sans SC, Microsoft YaHei, sans-serif" font-size="34" font-weight="700" letter-spacing="2">
    AI 日报
  </text>

  <text x="270" y="332" fill="#60706A" font-family="JetBrains Mono, SFMono-Regular, Menlo, monospace" font-size="34" font-weight="600" letter-spacing="4">
    2026 / 04 / 21
  </text>

  <text x="270" y="448" fill="#17201D" font-family="PingFang SC, Noto Sans SC, Source Han Sans SC, Microsoft YaHei, sans-serif" font-size="92" font-weight="700">
    算力还在加码
  </text>
  <text x="270" y="556" fill="#0C4A3B" font-family="PingFang SC, Noto Sans SC, Source Han Sans SC, Microsoft YaHei, sans-serif" font-size="82" font-weight="800">
    设计与商业化
  </text>
  <text x="270" y="656" fill="#145B6A" font-family="PingFang SC, Noto Sans SC, Source Han Sans SC, Microsoft YaHei, sans-serif" font-size="72" font-weight="800">
    同时提速
  </text>

  <text x="274" y="742" fill="#586360" font-family="PingFang SC, Noto Sans SC, Source Han Sans SC, Microsoft YaHei, sans-serif" font-size="30" font-weight="500">
    今日看点：Anthropic x Amazon / Claude Design / ChatGPT Ads / Gemini Ads Safety
  </text>

  <g transform="translate(1580 214)">
    <rect x="0" y="0" width="390" height="190" rx="28" fill="#F3F8FA" stroke="#D7E2E7" stroke-width="3"/>
    <rect x="30" y="30" width="140" height="24" rx="12" fill="#D8E7DF"/>
    <rect x="30" y="72" width="210" height="20" rx="10" fill="#E5EDF2"/>
    <rect x="30" y="106" width="270" height="20" rx="10" fill="#E5EDF2"/>
    <rect x="30" y="140" width="180" height="20" rx="10" fill="#E5EDF2"/>
    <circle cx="330" cy="96" r="34" fill="#145B6A"/>
    <path d="M316 96H344" stroke="#F6FAF8" stroke-width="8" stroke-linecap="round"/>
    <path d="M330 82V110" stroke="#F6FAF8" stroke-width="8" stroke-linecap="round"/>
  </g>

  <g transform="translate(1510 462)">
    <rect x="0" y="0" width="500" height="222" rx="30" fill="#FFF5E7" stroke="#E2CFAB" stroke-width="3"/>
    <rect x="42" y="38" width="180" height="34" rx="17" fill="#0C4A3B"/>
    <text x="69" y="62" fill="#F6FAF8" font-family="PingFang SC, Noto Sans SC, Source Han Sans SC, Microsoft YaHei, sans-serif" font-size="24" font-weight="700">
      今日信号
    </text>
    <circle cx="84" cy="122" r="12" fill="#D2A24B"/>
    <text x="112" y="130" fill="#5A4E33" font-family="PingFang SC, Noto Sans SC, Source Han Sans SC, Microsoft YaHei, sans-serif" font-size="28" font-weight="600">
      算力开始被长期锁定
    </text>
    <circle cx="84" cy="168" r="12" fill="#145B6A"/>
    <text x="112" y="176" fill="#40555D" font-family="PingFang SC, Noto Sans SC, Source Han Sans SC, Microsoft YaHei, sans-serif" font-size="28" font-weight="600">
      AI 产品走向直接交付
    </text>
  </g>
</svg>
